<?xml version="1.0" encoding="UTF-8"?>
<svg xmlns="http://www.w3.org/2000/svg" xmlns:xlink="http://www.w3.org/1999/xlink" viewBox="0 0 1484.88 1035.58">
  <defs>
    <style>
      .cls-1 {
        fill: #cac9cd;
      }

      .cls-2, .cls-3 {
        fill: #fff;
      }

      .cls-4 {
        fill: #c0c1c7;
      }

      .cls-5 {
        fill: #e7e8ea;
      }

      .cls-6 {
        fill: url(#Degradado_sin_nombre_47);
      }

      .cls-7 {
        fill: #46454a;
      }

      .cls-8 {
        fill: #998f98;
      }

      .cls-9 {
        fill: #333b4e;
      }

      .cls-10 {
        fill: #b6b5bc;
      }

      .cls-11 {
        fill: #6b656f;
      }

      .cls-12 {
        isolation: isolate;
      }

      .cls-13 {
        fill: #171622;
      }

      .cls-3, .cls-14 {
        mix-blend-mode: overlay;
      }

      .cls-15 {
        fill: #0d121c;
      }

      .cls-16 {
        fill: #3e414c;
      }

      .cls-17 {
        fill: #1e6ee9;
      }

      .cls-18 {
        fill: #b0b0b8;
      }

      .cls-19 {
        fill: #302f34;
      }

      .cls-20 {
        fill: #262430;
      }

      .cls-21 {
        stroke: #000;
        stroke-miterlimit: 10;
        stroke-width: 80px;
      }

      .cls-22 {
        fill: #333237;
      }

      .cls-23 {
        fill: #3d3945;
      }

      .cls-24 {
        fill: #3a87f3;
      }

      .cls-25 {
        fill: #0854db;
      }

      .cls-26 {
        fill: #47464b;
      }
    </style>
    <linearGradient id="Degradado_sin_nombre_47" data-name="Degradado sin nombre 47" x1="885.53" y1="203.39" x2="885.53" y2="824.76" gradientTransform="translate(0 -2.11)" gradientUnits="userSpaceOnUse">
      <stop offset="0" stop-color="#e7e8ea"/>
      <stop offset="1" stop-color="#c0c1c7"/>
    </linearGradient>
  </defs>
  <g class="cls-12">
    <g id="Layer_1" data-name="Layer 1">
      <g>
        <g id="Layer_1_copy" data-name="Layer 1 copy">
          <g class="cls-12">
            <polygon class="cls-21" points="1440.33 374.22 1238.6 995.58 1045.98 995.58 950.41 871.44 893.89 871.44 848.7 812.8 789.32 995.58 597.02 995.58 463.88 822.65 665.6 201.28 858.01 201.28 991.16 374.22 969.78 439.94 971.89 442.69 1009.99 325.74 1074.13 325.74 1114.56 201.28 1307.18 201.28 1440.33 374.22"/>
          </g>
        </g>
        <g id="Layer_1-2" data-name="Layer 1">
          <g class="cls-12">
            <g>
              <polygon points="858.01 201.28 991.16 374.22 950.73 498.57 817.58 325.64 858.01 201.28"/>
              <polygon points="736.94 574.14 870.08 747.08 789.32 995.58 656.18 822.65 736.94 574.14"/>
            </g>
            <polygon points="881.83 325.64 1014.97 498.57 974.54 623.04 841.4 450.1 881.83 325.64"/>
            <polygon points="801.07 574.14 934.22 747.08 870.08 747.08 736.94 574.14 801.07 574.14"/>
            <polygon class="cls-16" points="656.18 822.65 789.32 995.58 597.02 995.58 463.88 822.65 656.18 822.65"/>
            <polygon points="993.48 574.14 1126.63 747.08 1062.38 747.08 929.24 574.14 993.48 574.14"/>
            <polygon points="888.92 698.61 1022.06 871.44 893.89 871.44 760.75 698.61 888.92 698.61"/>
            <polygon points="929.24 574.14 1062.38 747.08 1022.06 871.44 888.92 698.61 929.24 574.14"/>
            <polygon points="1307.18 201.28 1440.33 374.22 1238.6 995.58 1105.46 822.65 1307.18 201.28"/>
            <polygon class="cls-6" points="1307.18 201.28 1105.46 822.65 912.84 822.65 993.48 574.14 929.24 574.14 888.92 698.61 760.75 698.61 801.07 574.14 736.94 574.14 656.18 822.65 463.88 822.65 665.6 201.28 858.01 201.28 817.58 325.64 881.83 325.64 841.4 450.1 969.56 450.1 1009.89 325.64 1074.13 325.64 1114.56 201.28 1307.18 201.28"/>
            <polygon class="cls-16" points="1105.46 822.65 1238.6 995.58 1045.98 995.58 912.84 822.65 1105.46 822.65"/>
          </g>
        </g>
        <g>
          <polygon class="cls-24" points="909.33 636.23 889.15 698.38 825 698.38 845.18 636.23 909.33 636.23"/>
          <polygon class="cls-24" points="905.72 449.82 885.54 511.97 821.35 511.97 841.53 449.82 905.72 449.82"/>
          <polygon class="cls-24" points="865.36 574.08 845.18 636.23 781.03 636.23 801.21 574.08 865.36 574.08"/>
          <polygon class="cls-24" points="845.18 636.23 825 698.38 760.85 698.38 781.03 636.23 845.18 636.23"/>
          <polygon class="cls-24" points="821.35 511.97 801.21 574.08 737.06 574.08 757.2 511.97 821.35 511.97"/>
          <polygon class="cls-24" points="777.38 449.82 757.2 511.97 693.05 511.97 713.23 449.82 777.38 449.82"/>
          <polygon class="cls-24" points="757.2 511.97 737.06 574.08 672.87 574.08 693.05 511.97 757.2 511.97"/>
          <polygon class="cls-24" points="737.06 574.08 716.89 636.23 652.7 636.23 672.87 574.08 737.06 574.08"/>
          <polygon class="cls-24" points="716.89 636.23 696.71 698.38 632.52 698.38 652.7 636.23 716.89 636.23"/>
          <polygon class="cls-17" points="696.71 698.38 676.53 760.49 612.38 760.49 632.52 698.38 696.71 698.38"/>
          <polygon class="cls-17" points="693.05 511.97 672.87 574.08 608.73 574.08 628.91 511.97 693.05 511.97"/>
          <polygon class="cls-17" points="676.53 760.49 656.35 822.64 592.2 822.64 612.38 760.49 676.53 760.49"/>
          <polygon class="cls-24" points="672.87 574.08 652.7 636.23 588.55 636.23 608.73 574.08 672.87 574.08"/>
          <polygon class="cls-25" points="652.7 636.23 632.52 698.38 568.37 698.38 588.55 636.23 652.7 636.23"/>
          <polygon class="cls-17" points="649.08 449.82 628.91 511.97 564.76 511.97 584.89 449.82 649.08 449.82"/>
          <polygon class="cls-17" points="632.52 698.38 612.38 760.49 548.23 760.49 568.37 698.38 632.52 698.38"/>
          <polygon class="cls-24" points="628.91 511.97 608.73 574.08 544.58 574.08 564.76 511.97 628.91 511.97"/>
          <polygon class="cls-25" points="612.38 760.49 592.2 822.64 528.05 822.64 548.23 760.49 612.38 760.49"/>
          <polygon class="cls-17" points="608.73 574.08 588.55 636.23 524.4 636.23 544.58 574.08 608.73 574.08"/>
          <polygon class="cls-17" points="588.55 636.23 568.37 698.38 504.22 698.38 524.4 636.23 588.55 636.23"/>
          <polygon class="cls-25" points="568.37 698.38 548.23 760.49 484.04 760.49 504.22 698.38 568.37 698.38"/>
          <polygon class="cls-25" points="548.23 760.49 528.05 822.64 463.86 822.64 484.04 760.49 548.23 760.49"/>
        </g>
        <g id="Layer_3" data-name="Layer 3">
          <g>
            <g class="cls-14">
              <polygon class="cls-2" points="827.74 294.52 824.46 304.89 792.39 304.89 781.7 304.79 632.05 304.79 635.33 294.41 678.09 294.41 688.78 294.52 827.74 294.52"/>
              <polygon class="cls-2" points="1108.1 418.77 1104.82 429.04 976.55 429.04 979.83 418.77 1108.1 418.77"/>
              <polygon class="cls-2" points="1236.38 418.77 1232.99 429.15 1158.17 429.15 1147.58 429.04 1126.2 429.04 1129.48 418.77 1236.38 418.77"/>
              <polygon class="cls-2" points="1169.81 294.52 1166.42 304.89 1080.9 304.89 1084.29 294.52 1169.81 294.52"/>
              <polygon class="cls-2" points="1108.85 812.27 1105.46 822.65 913.05 822.65 916.33 812.27 1108.85 812.27"/>
              <polygon class="cls-2" points="996.98 563.66 993.59 574.04 929.45 574.04 932.84 563.66 996.98 563.66"/>
              <polygon class="cls-2" points="892.52 688.02 889.13 698.29 760.85 698.29 764.24 688.02 892.52 688.02"/>
              <polygon class="cls-2" points="804.57 563.66 801.18 574.04 737.04 574.04 740.43 563.66 804.57 563.66"/>
            </g>
            <polygon class="cls-3" points="659.78 812.27 656.39 822.65 463.88 822.65 467.26 812.27 659.78 812.27"/>
            <polygon class="cls-11" points="1232.99 429.15 1229.71 439.41 1219.02 439.41 1222.41 429.15 1232.99 429.15"/>
            <polygon class="cls-8" points="1229.71 439.41 1226.32 449.78 1215.63 449.78 1219.02 439.41 1229.71 439.41"/>
            <polygon class="cls-11" points="1222.41 429.15 1219.02 439.41 1208.33 439.41 1211.72 429.15 1222.41 429.15"/>
            <polygon class="cls-8" points="1219.02 439.41 1215.63 449.78 1204.95 449.78 1208.33 439.41 1219.02 439.41"/>
            <polygon class="cls-11" points="1211.72 429.15 1208.33 439.41 1197.64 439.41 1200.92 429.15 1211.72 429.15"/>
            <polygon class="cls-8" points="1208.33 439.41 1204.95 449.78 1194.26 449.78 1197.64 439.41 1208.33 439.41"/>
            <polygon class="cls-11" points="1200.92 429.15 1197.64 439.41 1186.95 439.41 1190.23 429.15 1200.92 429.15"/>
            <polygon class="cls-8" points="1197.64 439.41 1194.26 449.78 1183.57 449.78 1186.95 439.41 1197.64 439.41"/>
            <polygon class="cls-11" points="1190.23 429.15 1186.95 439.41 1176.26 439.41 1179.65 429.15 1190.23 429.15"/>
            <polygon class="cls-8" points="1186.95 439.41 1183.57 449.78 1172.88 449.78 1176.26 439.41 1186.95 439.41"/>
            <polygon class="cls-11" points="1179.65 429.15 1176.26 439.41 1165.57 439.41 1168.96 429.15 1179.65 429.15"/>
            <polygon class="cls-8" points="1176.26 439.41 1172.88 449.78 1162.19 449.78 1165.57 439.41 1176.26 439.41"/>
            <polygon class="cls-11" points="1168.96 429.15 1165.57 439.41 1154.88 439.41 1158.17 429.15 1168.96 429.15"/>
            <polygon class="cls-11" points="1166.42 304.89 1163.14 315.26 1152.34 315.26 1155.73 304.89 1166.42 304.89"/>
            <polygon class="cls-8" points="1165.57 439.41 1162.19 449.78 1151.5 449.78 1154.88 439.41 1165.57 439.41"/>
            <polygon class="cls-8" points="1163.14 315.26 1159.75 325.53 1149.06 325.53 1152.34 315.26 1163.14 315.26"/>
            <polygon class="cls-8" points="1159.75 325.53 1156.37 335.9 1145.68 335.9 1149.06 325.53 1159.75 325.53"/>
            <polygon class="cls-11" points="1158.17 429.15 1154.88 439.41 1144.19 439.41 1147.58 429.04 1158.17 429.15"/>
            <polygon class="cls-8" points="1156.37 335.9 1152.98 346.27 1142.29 346.27 1145.68 335.9 1156.37 335.9"/>
            <polygon class="cls-11" points="1155.73 304.89 1152.34 315.26 1141.76 315.26 1145.04 304.89 1155.73 304.89"/>
            <polygon class="cls-8" points="1154.88 439.41 1151.5 449.78 1140.81 449.78 1144.19 439.41 1154.88 439.41"/>
            <polygon class="cls-8" points="1152.98 346.27 1149.7 356.65 1139.01 356.65 1142.29 346.27 1152.98 346.27"/>
            <polygon class="cls-8" points="1152.34 315.26 1149.06 325.53 1138.37 325.53 1141.76 315.26 1152.34 315.26"/>
            <polygon class="cls-8" points="1149.7 356.65 1146.31 367.02 1135.62 367.02 1139.01 356.65 1149.7 356.65"/>
            <polygon class="cls-11" points="1149.06 325.53 1145.68 335.9 1134.99 335.9 1138.37 325.53 1149.06 325.53"/>
            <polygon class="cls-11" points="1147.58 429.04 1144.19 439.41 1133.51 439.41 1136.89 429.04 1147.58 429.04"/>
            <polygon class="cls-8" points="1146.31 367.02 1142.92 377.29 1132.24 377.29 1135.62 367.02 1146.31 367.02"/>
            <polygon class="cls-11" points="1145.68 335.9 1142.29 346.27 1131.6 346.27 1134.99 335.9 1145.68 335.9"/>
            <polygon class="cls-11" points="1145.04 304.89 1141.76 315.26 1130.97 315.26 1134.35 304.89 1145.04 304.89"/>
            <polygon class="cls-8" points="1144.19 439.41 1140.81 449.78 1130.12 449.78 1133.51 439.41 1144.19 439.41"/>
            <polygon class="cls-8" points="1142.92 377.29 1139.64 387.66 1128.85 387.66 1132.24 377.29 1142.92 377.29"/>
            <polygon class="cls-11" points="1142.29 346.27 1139.01 356.65 1128.32 356.65 1131.6 346.27 1142.29 346.27"/>
            <polygon class="cls-8" points="1141.76 315.26 1138.37 325.53 1127.68 325.53 1130.97 315.26 1141.76 315.26"/>
            <polygon class="cls-8" points="1139.64 387.66 1136.26 398.03 1125.57 398.03 1128.85 387.66 1139.64 387.66"/>
            <polygon class="cls-11" points="1139.01 356.65 1135.62 367.02 1124.93 367.02 1128.32 356.65 1139.01 356.65"/>
            <polygon class="cls-11" points="1136.89 429.04 1133.51 439.41 1122.82 439.41 1126.2 429.04 1136.89 429.04"/>
            <polygon class="cls-8" points="1136.26 398.03 1132.87 408.4 1122.18 408.4 1125.57 398.03 1136.26 398.03"/>
            <polygon class="cls-11" points="1135.62 367.02 1132.24 377.29 1121.55 377.29 1124.93 367.02 1135.62 367.02"/>
            <polygon class="cls-11" points="1134.35 304.89 1130.97 315.26 1120.38 315.26 1123.66 304.89 1134.35 304.89"/>
            <polygon class="cls-8" points="1133.51 439.41 1130.12 449.78 1119.43 449.78 1122.82 439.41 1133.51 439.41"/>
            <polygon class="cls-8" points="1132.87 408.4 1129.48 418.77 1118.79 418.77 1122.18 408.4 1132.87 408.4"/>
            <polygon class="cls-11" points="1132.24 377.29 1128.85 387.66 1118.26 387.66 1121.55 377.29 1132.24 377.29"/>
            <polygon class="cls-8" points="1130.97 315.26 1127.68 325.53 1116.99 325.53 1120.38 315.26 1130.97 315.26"/>
            <polygon class="cls-8" points="1129.48 418.77 1126.2 429.04 1115.51 429.04 1118.79 418.77 1129.48 418.77"/>
            <polygon class="cls-11" points="1128.85 387.66 1125.57 398.03 1114.88 398.03 1118.26 387.66 1128.85 387.66"/>
            <polygon class="cls-8" points="1126.2 429.04 1122.82 439.41 1112.13 439.41 1115.51 429.04 1126.2 429.04"/>
            <polygon class="cls-11" points="1125.57 398.03 1122.18 408.4 1111.49 408.4 1114.88 398.03 1125.57 398.03"/>
            <polygon class="cls-11" points="1123.66 304.89 1120.38 315.26 1109.69 315.26 1112.97 304.89 1123.66 304.89"/>
            <polygon class="cls-8" points="1122.82 439.41 1119.43 449.78 1108.74 449.78 1112.13 439.41 1122.82 439.41"/>
            <polygon class="cls-11" points="1122.18 408.4 1118.79 418.77 1108.1 418.77 1111.49 408.4 1122.18 408.4"/>
            <polygon class="cls-8" points="1120.38 315.26 1116.99 325.53 1106.31 325.53 1109.69 315.26 1120.38 315.26"/>
            <polygon class="cls-11" points="1118.79 418.77 1115.51 429.04 1104.82 429.04 1108.1 418.77 1118.79 418.77"/>
            <polygon class="cls-11" points="1115.51 429.04 1112.13 439.41 1101.44 439.41 1104.82 429.04 1115.51 429.04"/>
            <polygon class="cls-11" points="1112.97 304.89 1109.69 315.26 1099 315.26 1102.28 304.89 1112.97 304.89"/>
            <polygon class="cls-8" points="1112.13 439.41 1108.74 449.78 1098.05 449.78 1101.44 439.41 1112.13 439.41"/>
            <polygon class="cls-8" points="1109.69 315.26 1106.31 325.53 1095.62 325.53 1099 315.26 1109.69 315.26"/>
            <polygon class="cls-11" points="1104.82 429.04 1101.44 439.41 1090.75 439.41 1094.13 429.04 1104.82 429.04"/>
            <polygon class="cls-11" points="1102.28 304.89 1099 315.26 1088.31 315.26 1091.59 304.89 1102.28 304.89"/>
            <polygon class="cls-8" points="1101.44 439.41 1098.05 449.78 1087.36 449.78 1090.75 439.41 1101.44 439.41"/>
            <polygon class="cls-8" points="1099 315.26 1095.62 325.53 1084.93 325.53 1088.31 315.26 1099 315.26"/>
            <polygon class="cls-11" points="1094.13 429.04 1090.75 439.41 1080.06 439.41 1083.44 429.04 1094.13 429.04"/>
            <polygon class="cls-11" points="1091.59 304.89 1088.31 315.26 1077.62 315.26 1080.9 304.89 1091.59 304.89"/>
            <polygon class="cls-8" points="1090.75 439.41 1087.36 449.78 1076.67 449.78 1080.06 439.41 1090.75 439.41"/>
            <polygon class="cls-8" points="1088.31 315.26 1084.93 325.53 1074.24 325.53 1077.62 315.26 1088.31 315.26"/>
            <polygon class="cls-11" points="1083.44 429.04 1080.06 439.41 1069.37 439.41 1072.76 429.04 1083.44 429.04"/>
            <polygon class="cls-8" points="1080.06 439.41 1076.67 449.78 1065.98 449.78 1069.37 439.41 1080.06 439.41"/>
            <polygon class="cls-11" points="1072.76 429.04 1069.37 439.41 1058.68 439.41 1062.07 429.04 1072.76 429.04"/>
            <polygon class="cls-8" points="1069.37 439.41 1065.98 449.78 1055.29 449.78 1058.68 439.41 1069.37 439.41"/>
            <polygon class="cls-11" points="1062.07 429.04 1058.68 439.41 1047.99 439.41 1051.38 429.04 1062.07 429.04"/>
            <polygon class="cls-8" points="1058.68 439.41 1055.29 449.78 1044.6 449.78 1047.99 439.41 1058.68 439.41"/>
            <polygon class="cls-11" points="1051.38 429.04 1047.99 439.41 1037.3 439.41 1040.69 429.04 1051.38 429.04"/>
            <polygon class="cls-8" points="1047.99 439.41 1044.6 449.78 1033.91 449.78 1037.3 439.41 1047.99 439.41"/>
            <polygon class="cls-11" points="1040.69 429.04 1037.3 439.41 1026.61 439.41 1030 429.04 1040.69 429.04"/>
            <polygon class="cls-8" points="1037.3 439.41 1033.91 449.78 1023.22 449.78 1026.61 439.41 1037.3 439.41"/>
            <polygon class="cls-11" points="1030 429.04 1026.61 439.41 1015.92 439.41 1019.31 429.04 1030 429.04"/>
            <polygon class="cls-8" points="1026.61 439.41 1023.22 449.78 1012.53 449.78 1015.92 439.41 1026.61 439.41"/>
            <polygon class="cls-11" points="1019.31 429.04 1015.92 439.41 1005.23 439.41 1008.62 429.04 1019.31 429.04"/>
            <polygon class="cls-8" points="1015.92 439.41 1012.53 449.78 1001.84 449.78 1005.23 439.41 1015.92 439.41"/>
            <polygon class="cls-11" points="1008.62 429.04 1005.23 439.41 994.54 439.41 997.93 429.04 1008.62 429.04"/>
            <polygon class="cls-8" points="1005.23 439.41 1001.84 449.78 991.16 449.78 994.54 439.41 1005.23 439.41"/>
            <polygon class="cls-11" points="997.93 429.04 994.54 439.41 983.85 439.41 987.24 429.04 997.93 429.04"/>
            <polygon class="cls-8" points="994.54 439.41 991.16 449.78 980.47 449.78 983.85 439.41 994.54 439.41"/>
            <polygon class="cls-11" points="987.24 429.04 983.85 439.41 973.16 439.41 976.55 429.04 987.24 429.04"/>
            <polygon class="cls-8" points="983.85 439.41 980.47 449.78 969.78 449.78 973.16 439.41 983.85 439.41"/>
            <polygon class="cls-11" points="824.46 304.89 821.08 315.16 810.39 315.16 813.77 304.89 824.46 304.89"/>
            <polygon class="cls-8" points="821.08 315.16 817.69 325.53 807 325.53 810.39 315.16 821.08 315.16"/>
            <polygon class="cls-11" points="813.77 304.89 810.39 315.16 799.7 315.16 803.08 304.89 813.77 304.89"/>
            <polygon class="cls-8" points="810.39 315.16 807 325.53 796.31 325.53 799.7 315.16 810.39 315.16"/>
            <polygon class="cls-11" points="803.08 304.89 799.7 315.16 789.01 315.16 792.39 304.89 803.08 304.89"/>
            <polygon class="cls-8" points="799.7 315.16 796.31 325.53 785.62 325.53 789.01 315.16 799.7 315.16"/>
            <polygon class="cls-11" points="792.39 304.89 789.01 315.16 778.32 315.16 781.7 304.79 792.39 304.89"/>
            <polygon class="cls-8" points="789.01 315.16 785.62 325.53 774.93 325.53 778.32 315.16 789.01 315.16"/>
            <polygon class="cls-11" points="781.7 304.79 778.32 315.16 767.63 315.16 771.01 304.79 781.7 304.79"/>
            <polygon class="cls-8" points="778.32 315.16 774.93 325.53 764.24 325.53 767.63 315.16 778.32 315.16"/>
            <polygon class="cls-11" points="771.01 304.79 767.63 315.16 756.94 315.16 760.33 304.79 771.01 304.79"/>
            <polygon class="cls-8" points="767.63 315.16 764.24 325.53 753.55 325.53 756.94 315.16 767.63 315.16"/>
            <polygon class="cls-11" points="760.33 304.79 756.94 315.16 746.25 315.16 749.64 304.79 760.33 304.79"/>
            <polygon class="cls-8" points="756.94 315.16 753.55 325.53 742.86 325.53 746.25 315.16 756.94 315.16"/>
            <polygon class="cls-11" points="749.64 304.79 746.25 315.16 735.56 315.16 738.95 304.79 749.64 304.79"/>
            <polygon class="cls-8" points="746.25 315.16 742.86 325.53 732.17 325.53 735.56 315.16 746.25 315.16"/>
            <polygon class="cls-11" points="738.95 304.79 735.56 315.16 724.87 315.16 728.26 304.79 738.95 304.79"/>
            <polygon class="cls-8" points="735.56 315.16 732.17 325.53 721.48 325.53 724.87 315.16 735.56 315.16"/>
            <polygon class="cls-11" points="728.26 304.79 724.87 315.16 714.18 315.16 717.57 304.79 728.26 304.79"/>
            <polygon class="cls-8" points="724.87 315.16 721.48 325.53 710.79 325.53 714.18 315.16 724.87 315.16"/>
            <polygon class="cls-11" points="717.57 304.79 714.18 315.16 703.49 315.16 706.88 304.79 717.57 304.79"/>
            <polygon class="cls-8" points="714.18 315.16 710.79 325.53 700.1 325.53 703.49 315.16 714.18 315.16"/>
            <polygon class="cls-11" points="706.88 304.79 703.49 315.16 692.8 315.16 696.19 304.79 706.88 304.79"/>
            <polygon class="cls-8" points="703.49 315.16 700.1 325.53 689.41 325.53 692.8 315.16 703.49 315.16"/>
            <polygon class="cls-11" points="696.19 304.79 692.8 315.16 682.11 315.16 685.5 304.79 696.19 304.79"/>
            <polygon class="cls-8" points="692.8 315.16 689.41 325.53 678.73 325.53 682.11 315.16 692.8 315.16"/>
            <polygon class="cls-11" points="685.5 304.79 682.11 315.16 671.42 315.16 674.81 304.79 685.5 304.79"/>
            <polygon class="cls-8" points="682.11 315.16 678.73 325.53 668.04 325.53 671.42 315.16 682.11 315.16"/>
            <polygon class="cls-11" points="674.81 304.79 671.42 315.16 660.73 315.16 664.12 304.79 674.81 304.79"/>
            <polygon class="cls-8" points="671.42 315.16 668.04 325.53 657.35 325.53 660.73 315.16 671.42 315.16"/>
            <polygon class="cls-11" points="664.12 304.79 660.73 315.16 650.04 315.16 653.43 304.79 664.12 304.79"/>
            <polygon class="cls-8" points="660.73 315.16 657.35 325.53 646.66 325.53 650.04 315.16 660.73 315.16"/>
            <polygon class="cls-11" points="653.43 304.79 650.04 315.16 639.35 315.16 642.74 304.79 653.43 304.79"/>
            <polygon class="cls-8" points="650.04 315.16 646.66 325.53 635.97 325.53 639.35 315.16 650.04 315.16"/>
            <polygon class="cls-11" points="642.74 304.79 639.35 315.16 628.66 315.16 632.05 304.79 642.74 304.79"/>
            <polygon class="cls-8" points="639.35 315.16 635.97 325.53 625.28 325.53 628.66 315.16 639.35 315.16"/>
          </g>
        </g>
        <g id="Layer_4" data-name="Layer 4">
          <g>
            <polygon class="cls-20" points="1165.47 928.27 1154.78 928.27 1147.37 918.75 1158.06 918.75 1165.47 928.27"/>
            <polygon class="cls-20" points="1168.75 918.75 1176.16 928.27 1165.47 928.27 1158.06 918.75 1168.75 918.75"/>
            <polygon class="cls-20" points="1186.85 928.27 1176.16 928.27 1168.75 918.75 1179.44 918.75 1186.85 928.27"/>
            <polygon class="cls-20" points="1136.68 918.75 1144.09 928.27 1133.4 928.27 1125.99 918.75 1136.68 918.75"/>
            <polygon class="cls-20" points="1154.78 928.27 1144.09 928.27 1136.68 918.75 1147.37 918.75 1154.78 928.27"/>
            <polygon class="cls-13" points="1154.78 928.27 1162.19 937.9 1151.5 937.9 1144.09 928.27 1154.78 928.27"/>
            <polygon class="cls-13" points="1165.47 928.27 1172.88 937.9 1162.19 937.9 1154.78 928.27 1165.47 928.27"/>
            <polygon class="cls-13" points="1183.57 937.9 1172.88 937.9 1165.47 928.27 1176.16 928.27 1183.57 937.9"/>
            <polygon class="cls-13" points="1186.85 928.27 1194.26 937.9 1183.57 937.9 1176.16 928.27 1186.85 928.27"/>
            <polygon class="cls-13" points="1151.5 937.9 1140.81 937.9 1133.4 928.27 1144.09 928.27 1151.5 937.9"/>
            <polygon class="cls-13" points="1133.4 928.27 1140.81 937.9 1130.12 937.9 1122.71 928.27 1133.4 928.27"/>
            <polygon class="cls-13" points="1133.4 928.27 1122.71 928.27 1115.3 918.75 1125.99 918.75 1133.4 928.27"/>
            <polygon class="cls-13" points="676.82 918.75 684.23 928.27 673.54 928.27 666.13 918.75 676.82 918.75"/>
            <polygon class="cls-20" points="708.89 918.75 716.3 928.27 705.61 928.27 698.2 918.75 708.89 918.75"/>
            <polygon class="cls-20" points="737.68 928.27 726.99 928.27 719.68 918.75 730.27 918.75 737.68 928.27"/>
            <polygon class="cls-20" points="726.99 928.27 716.3 928.27 708.89 918.75 719.68 918.75 726.99 928.27"/>
            <polygon class="cls-20" points="694.92 928.27 684.23 928.27 676.82 918.75 687.51 918.75 694.92 928.27"/>
            <polygon class="cls-20" points="705.61 928.27 694.92 928.27 687.51 918.75 698.2 918.75 705.61 928.27"/>
            <polygon class="cls-13" points="694.92 928.27 702.33 937.9 691.64 937.9 684.23 928.27 694.92 928.27"/>
            <polygon class="cls-13" points="691.64 937.9 680.95 937.9 673.54 928.27 684.23 928.27 691.64 937.9"/>
            <polygon class="cls-13" points="723.71 937.9 713.02 937.9 705.61 928.27 716.3 928.27 723.71 937.9"/>
            <polygon class="cls-13" points="705.61 928.27 713.02 937.9 702.33 937.9 694.92 928.27 705.61 928.27"/>
            <polygon class="cls-13" points="726.99 928.27 734.4 937.9 723.71 937.9 716.3 928.27 726.99 928.27"/>
            <polygon class="cls-13" points="737.68 928.27 745.08 937.9 734.4 937.9 726.99 928.27 737.68 928.27"/>
            <polygon class="cls-11" points="1140.81 937.9 1148.11 947.53 1137.42 947.53 1130.12 937.9 1140.81 937.9"/>
            <polygon class="cls-11" points="1162.19 937.9 1169.49 947.53 1158.91 947.53 1151.5 937.9 1162.19 937.9"/>
            <polygon class="cls-11" points="1151.5 937.9 1158.91 947.53 1148.11 947.53 1140.81 937.9 1151.5 937.9"/>
            <polygon class="cls-11" points="1172.88 937.9 1180.18 947.53 1169.49 947.53 1162.19 937.9 1172.88 937.9"/>
            <polygon class="cls-11" points="1183.57 937.9 1190.97 947.53 1180.18 947.53 1172.88 937.9 1183.57 937.9"/>
            <polygon class="cls-11" points="1194.26 937.9 1201.66 947.53 1190.97 947.53 1183.57 937.9 1194.26 937.9"/>
            <polygon class="cls-11" points="745.08 937.9 752.49 947.53 741.8 947.53 734.4 937.9 745.08 937.9"/>
            <polygon class="cls-11" points="734.4 937.9 741.8 947.53 731.11 947.53 723.71 937.9 734.4 937.9"/>
            <polygon class="cls-11" points="723.71 937.9 731.11 947.53 720.43 947.53 713.02 937.9 723.71 937.9"/>
            <polygon class="cls-11" points="713.02 937.9 720.43 947.53 709.74 947.53 702.33 937.9 713.02 937.9"/>
            <polygon class="cls-11" points="702.33 937.9 709.74 947.53 699.05 947.53 691.64 937.9 702.33 937.9"/>
            <polygon class="cls-11" points="691.64 937.9 699.05 947.53 688.36 947.53 680.95 937.9 691.64 937.9"/>
          </g>
        </g>
        <g id="Layer_5" data-name="Layer 5">
          <g>
            <polygon class="cls-23" points="1295.75 495.61 1292.37 505.98 1285.06 496.35 1288.34 485.98 1295.75 495.61"/>
            <polygon class="cls-23" points="1288.34 485.98 1285.06 496.35 1277.65 486.72 1280.94 476.45 1288.34 485.98"/>
            <polygon class="cls-23" points="1280.94 476.45 1277.65 486.72 1270.25 477.19 1273.63 466.82 1280.94 476.45"/>
            <polygon class="cls-23" points="1266.22 457.19 1273.63 466.82 1270.25 477.19 1262.84 467.56 1266.22 457.19"/>
            <polygon class="cls-23" points="1266.22 457.19 1262.84 467.56 1255.43 457.93 1258.82 447.56 1266.22 457.19"/>
            <polygon class="cls-23" points="1258.82 447.56 1255.43 457.93 1248.02 448.3 1251.41 437.93 1258.82 447.56"/>
            <polygon class="cls-23" points="1251.41 437.93 1248.02 448.3 1240.61 438.78 1244 428.4 1251.41 437.93"/>
            <polygon class="cls-23" points="1245.37 812.91 1241.99 823.28 1234.58 813.65 1237.97 803.28 1245.37 812.91"/>
            <polygon class="cls-23" points="1244 428.4 1240.61 438.78 1233.2 429.15 1236.59 418.77 1244 428.4"/>
            <polygon class="cls-23" points="1241.99 823.28 1238.6 833.65 1231.19 824.02 1234.58 813.65 1241.99 823.28"/>
            <polygon class="cls-23" points="1231.19 824.02 1238.6 833.65 1235.21 844.02 1227.81 834.39 1231.19 824.02"/>
            <polygon class="cls-23" points="1227.81 834.39 1235.21 844.02 1231.93 854.29 1224.52 844.77 1227.81 834.39"/>
            <polygon class="cls-23" points="1231.93 854.29 1228.55 864.66 1221.14 855.03 1224.52 844.77 1231.93 854.29"/>
            <polygon class="cls-23" points="1228.55 864.66 1225.16 875.03 1217.75 865.4 1221.14 855.03 1228.55 864.66"/>
            <polygon class="cls-23" points="1217.75 865.4 1225.16 875.03 1221.77 885.41 1214.36 875.78 1217.75 865.4"/>
            <polygon class="cls-23" points="1221.77 885.41 1218.39 895.78 1211.08 886.15 1214.36 875.78 1221.77 885.41"/>
            <polygon class="cls-23" points="1218.39 895.78 1215.11 906.04 1207.7 896.52 1211.08 886.15 1218.39 895.78"/>
            <polygon class="cls-23" points="1207.7 896.52 1215.11 906.04 1211.72 916.42 1204.31 906.89 1207.7 896.52"/>
            <polygon class="cls-23" points="1204.31 906.89 1211.72 916.42 1208.33 926.79 1200.92 917.16 1204.31 906.89"/>
            <polygon class="cls-23" points="1208.33 926.79 1204.95 937.16 1197.64 927.53 1200.92 917.16 1208.33 926.79"/>
            <polygon class="cls-23" points="1204.95 937.16 1201.66 947.53 1194.26 937.9 1197.64 927.53 1204.95 937.16"/>
          </g>
        </g>
        <g id="Layer_6" data-name="Layer 6">
          <g>
            <polygon class="cls-23" points="772.6 885.41 769.22 895.78 761.81 886.15 765.19 875.78 772.6 885.41"/>
            <polygon class="cls-23" points="765.83 906.15 762.44 916.52 755.03 906.89 758.42 896.52 765.83 906.15"/>
            <polygon class="cls-23" points="761.81 886.15 769.22 895.78 765.83 906.15 758.42 896.52 761.81 886.15"/>
            <polygon class="cls-23" points="755.03 906.89 762.44 916.52 759.16 926.79 751.75 917.26 755.03 906.89"/>
            <polygon class="cls-23" points="751.75 917.26 759.16 926.79 755.77 937.16 748.37 927.53 751.75 917.26"/>
            <polygon class="cls-23" points="755.77 937.16 752.39 947.53 744.98 937.9 748.37 927.53 755.77 937.16"/>
          </g>
        </g>
      </g>
      <g>
        <polyline points="515.43 129.01 463.37 139.57 438.62 245.25 425.79 300.15 415.59 343.57 444.82 381.31 463.91 405.86 483.21 430.76 522.23 481.07 553.12 520.88 544.99 552.89 523.67 636.52 584.27 622.16 584.27 622.17 601.26 618.13 630.75 611.15 630.76 611.13 691.22 596.77 703.63 548.72 705.51 541.43 735.71 534.35 750.08 478.86 779.9 471.9 800.35 397.74 823.11 315.05 835.66 269.46 808.49 237 813.93 122.26 761.17 105.42 702.4 110.15 688.84 93.93 638.32 104.13 608.1 110.27 577.63 116.42 546.8 122.68"/>
        <polygon class="cls-26" points="777.77 147.38 772.57 257.15 746.49 254.93 752.06 149.39 777.77 147.38"/>
        <g>
          <polygon class="cls-4" points="776.44 253.13 797.13 277.85 766.67 284.52 746.03 259.68 776.44 253.13"/>
          <polygon class="cls-9" points="797.13 277.85 789.44 305.78 759.07 312.5 766.67 284.52 797.13 277.85"/>
          <polygon class="cls-9" points="789.44 305.78 781.8 333.52 751.51 340.28 759.07 312.5 789.44 305.78"/>
          <polygon class="cls-9" points="781.8 333.52 774.21 361.09 744 367.94 751.51 340.28 781.8 333.52"/>
          <polygon class="cls-9" points="774.21 361.09 766.68 388.46 736.54 395.35 744 367.94 774.21 361.09"/>
          <polygon class="cls-4" points="755.91 228.59 776.44 253.13 746.03 259.68 725.59 235.06 755.91 228.59"/>
          <polygon class="cls-9" points="766.68 388.46 759.19 415.63 729.17 422.57 736.54 395.35 766.68 388.46"/>
          <polygon class="cls-9" points="766.67 284.52 759.07 312.5 728.53 319.25 736.06 291.18 766.67 284.52"/>
          <polygon class="cls-4" points="746.03 259.68 766.67 284.52 736.06 291.18 715.5 266.27 746.03 259.68"/>
          <polygon class="cls-9" points="759.19 415.63 751.75 442.6 721.81 449.58 729.17 422.57 759.19 415.63"/>
          <polygon class="cls-15" points="759.07 312.5 751.51 340.28 721.05 347.11 728.53 319.25 759.07 312.5"/>
          <polygon class="cls-15" points="751.51 340.28 744 367.94 713.66 374.77 721.05 347.11 751.51 340.28"/>
          <polygon class="cls-5" points="735.53 204.21 755.91 228.59 725.59 235.06 705.26 210.56 735.53 204.21"/>
          <polygon class="cls-15" points="744 367.94 736.54 395.35 706.28 402.24 713.66 374.77 744 367.94"/>
          <polygon class="cls-4" points="725.59 235.06 746.03 259.68 715.5 266.27 695.11 241.52 725.59 235.06"/>
          <polygon class="cls-25" points="736.54 395.35 729.17 422.57 698.95 429.54 706.28 402.24 736.54 395.35"/>
          <polygon class="cls-4" points="715.5 266.27 736.06 291.18 705.28 297.92 684.77 272.92 715.5 266.27"/>
          <polygon class="cls-9" points="705.28 297.92 736.06 291.18 728.53 319.25 697.83 326.03 705.28 297.92"/>
          <polygon class="cls-25" points="729.17 422.57 721.81 449.58 721.57 449.65 691.71 456.6 698.95 429.54 729.17 422.57"/>
          <polygon class="cls-5" points="715.31 180.05 735.53 204.21 705.26 210.56 685.12 186.32 715.31 180.05"/>
          <polygon class="cls-15" points="728.53 319.25 721.05 347.11 690.42 353.94 697.83 326.03 728.53 319.25"/>
          <polygon class="cls-17" points="721.57 449.65 714.38 477.41 684.11 484.5 691.3 456.7 691.71 456.6 721.57 449.65"/>
          <polygon class="cls-15" points="721.05 347.11 713.66 374.77 683.11 381.69 690.42 353.94 721.05 347.11"/>
          <polygon class="cls-24" points="714.38 477.41 707.19 505.17 676.96 512.26 684.11 484.5 714.38 477.41"/>
          <polygon class="cls-5" points="705.26 210.56 725.59 235.06 695.11 241.52 674.82 216.99 705.26 210.56"/>
          <polygon class="cls-15" points="713.66 374.77 706.28 402.24 675.81 409.19 683.11 381.69 713.66 374.77"/>
          <polygon class="cls-4" points="715.5 266.27 684.77 272.92 664.41 248.06 695.11 241.52 715.5 266.27"/>
          <polygon class="cls-25" points="706.28 402.24 698.95 429.54 668.56 436.54 675.81 409.19 706.28 402.24"/>
          <polygon class="cls-5" points="695.25 156.06 715.31 180.05 685.12 186.32 665.1 162.25 695.25 156.06"/>
          <polygon class="cls-4" points="684.77 272.92 705.28 297.92 674.29 304.68 653.87 279.57 684.77 272.92"/>
          <polygon class="cls-9" points="705.28 297.92 697.83 326.03 666.96 332.88 674.29 304.68 705.28 297.92"/>
          <polygon class="cls-25" points="698.95 429.54 691.71 456.6 691.3 456.7 661.4 463.64 668.56 436.54 698.95 429.54"/>
          <polygon class="cls-5" points="705.26 210.56 674.82 216.99 654.73 192.63 685.12 186.32 705.26 210.56"/>
          <polygon class="cls-15" points="697.83 326.03 690.42 353.94 659.64 360.83 666.96 332.88 697.83 326.03"/>
          <polygon class="cls-17" points="691.3 456.7 684.11 484.5 653.84 491.63 660.99 463.75 661.4 463.64 691.3 456.7"/>
          <polygon class="cls-15" points="690.42 353.94 683.11 381.69 652.4 388.63 659.64 360.83 690.42 353.94"/>
          <polygon class="cls-17" points="684.11 484.5 676.96 512.26 646.69 519.38 653.84 491.63 684.11 484.5"/>
          <polygon class="cls-5" points="695.11 241.52 664.41 248.06 644.22 223.41 674.82 216.99 695.11 241.52"/>
          <polygon class="cls-4" points="675.37 132.28 695.25 156.06 665.1 162.25 645.27 138.35 675.37 132.28"/>
          <polygon class="cls-24" points="676.96 512.26 669.81 540.01 639.58 547.14 646.69 519.38 676.96 512.26"/>
          <polygon class="cls-15" points="683.11 381.69 675.81 409.19 645.22 416.18 652.4 388.63 683.11 381.69"/>
          <polygon class="cls-4" points="664.41 248.06 684.77 272.92 653.87 279.57 633.56 254.67 664.41 248.06"/>
          <polygon class="cls-24" points="669.81 540.01 662.67 567.65 632.48 574.82 639.58 547.14 669.81 540.01"/>
          <polygon class="cls-25" points="675.81 409.19 668.56 436.54 638.05 443.57 645.22 416.18 675.81 409.19"/>
          <polygon class="cls-5" points="685.12 186.32 654.73 192.63 634.79 168.48 665.1 162.25 685.12 186.32"/>
          <polygon class="cls-17" points="668.56 436.54 661.4 463.64 660.99 463.75 630.97 470.72 638.05 443.57 668.56 436.54"/>
          <polygon class="cls-4" points="653.87 279.57 674.29 304.68 643.13 311.52 622.76 286.29 653.87 279.57"/>
          <polygon class="cls-9" points="643.13 311.52 674.29 304.68 666.96 332.88 635.88 339.73 643.13 311.52"/>
          <polygon class="cls-5" points="654.73 192.63 674.82 216.99 644.22 223.41 624.21 199.01 654.73 192.63"/>
          <polygon class="cls-17" points="660.99 463.75 653.84 491.63 623.45 498.71 630.6 470.83 630.97 470.76 630.97 470.72 660.99 463.75"/>
          <polygon class="cls-15" points="666.96 332.88 659.64 360.83 628.68 367.77 635.88 339.73 666.96 332.88"/>
          <polygon class="cls-24" points="653.84 491.63 646.69 519.38 616.34 526.51 623.45 498.71 653.84 491.63"/>
          <polygon class="cls-15" points="659.64 360.83 652.4 388.63 621.49 395.6 628.68 367.77 659.64 360.83"/>
          <polygon class="cls-5" points="644.22 223.41 664.41 248.06 633.56 254.67 613.45 229.9 644.22 223.41"/>
          <polygon class="cls-4" points="645.27 138.35 665.1 162.25 634.79 168.48 615.01 144.5 645.27 138.35"/>
          <polygon class="cls-24" points="646.69 519.38 639.58 547.14 609.27 554.31 616.34 526.51 646.69 519.38"/>
          <polygon class="cls-15" points="652.4 388.63 645.22 416.18 614.39 423.24 621.49 395.6 652.4 388.63"/>
          <polygon class="cls-4" points="653.87 279.57 622.76 286.29 602.54 261.27 633.56 254.67 653.87 279.57"/>
          <polygon class="cls-25" points="645.22 416.18 638.05 443.57 607.34 450.64 614.39 423.24 645.22 416.18"/>
          <polygon class="cls-5" points="634.79 168.48 654.73 192.63 624.21 199.01 604.32 174.74 634.79 168.48"/>
          <polygon class="cls-25" points="638.05 443.57 630.97 470.72 630.97 470.76 630.6 470.83 600.34 477.87 607.34 450.64 638.05 443.57"/>
          <polygon class="cls-9" points="643.13 311.52 635.88 339.73 604.64 346.64 611.82 318.36 643.13 311.52"/>
          <polygon class="cls-4" points="622.76 286.29 643.13 311.52 611.82 318.36 591.53 293.05 622.76 286.29"/>
          <polygon class="cls-5" points="644.22 223.41 613.45 229.9 593.48 205.38 624.21 199.01 644.22 223.41"/>
          <polygon class="cls-17" points="600.34 477.87 630.6 470.83 623.45 498.71 592.97 505.87 600.09 477.94 600.34 477.87"/>
          <polygon class="cls-9" points="635.88 339.73 628.68 367.77 597.52 374.73 604.64 346.64 635.88 339.73"/>
          <polygon class="cls-24" points="592.97 505.87 623.45 498.71 616.34 526.51 585.9 533.71 592.97 505.87"/>
          <polygon class="cls-9" points="628.68 367.77 621.49 395.6 590.45 402.61 597.52 374.73 628.68 367.77"/>
          <polygon class="cls-5" points="613.45 229.9 633.56 254.67 602.54 261.27 582.47 236.42 613.45 229.9"/>
          <polygon class="cls-4" points="615.01 144.5 634.79 168.48 604.32 174.74 584.58 150.64 615.01 144.5"/>
          <polygon class="cls-24" points="585.9 533.71 616.34 526.51 609.27 554.31 578.83 561.51 585.9 533.71"/>
          <polygon class="cls-9" points="621.49 395.6 614.39 423.24 583.43 430.3 590.45 402.61 621.49 395.6"/>
          <polygon class="cls-4" points="622.76 286.29 591.53 293.05 591.49 293.05 571.35 267.91 602.54 261.27 622.76 286.29"/>
          <polygon class="cls-24" points="609.27 554.31 602.16 582.03 571.77 589.23 578.83 561.51 609.27 554.31"/>
          <polygon class="cls-9" points="614.39 423.24 607.34 450.64 576.45 457.78 583.43 430.3 614.39 423.24"/>
          <polygon class="cls-5" points="604.32 174.74 624.21 199.01 593.48 205.38 573.64 181.03 604.32 174.74"/>
          <polygon class="cls-9" points="607.34 450.64 600.34 477.87 600.09 477.94 569.53 485.06 576.45 457.78 607.34 450.64"/>
          <polygon class="cls-7" points="591.53 293.05 611.82 318.36 604.64 346.64 584.44 321.3 591.49 293.05 591.53 293.05"/>
          <polygon class="cls-5" points="613.45 229.9 582.47 236.42 562.56 211.79 593.48 205.38 613.45 229.9"/>
          <polygon class="cls-7" points="584.44 321.3 604.64 346.64 597.52 374.73 577.4 349.35 584.44 321.3"/>
          <polygon class="cls-7" points="577.4 349.35 597.52 374.73 590.45 402.61 570.45 377.24 577.4 349.35"/>
          <polygon class="cls-5" points="582.47 236.42 602.54 261.27 571.35 267.91 551.33 242.98 582.47 236.42"/>
          <polygon class="cls-4" points="584.58 150.64 604.32 174.74 573.64 181.03 553.99 156.86 584.58 150.64"/>
          <polygon class="cls-7" points="570.45 377.24 590.45 402.61 583.43 430.3 563.51 404.88 570.45 377.24"/>
          <polygon class="cls-7" points="571.35 267.91 591.49 293.05 584.44 321.3 564.38 296.17 571.35 267.91"/>
          <polygon class="cls-7" points="563.51 404.88 583.43 430.3 576.45 457.78 556.66 432.37 563.51 404.88"/>
          <polygon class="cls-5" points="593.48 205.38 562.56 211.79 542.83 187.36 573.64 181.03 593.48 205.38"/>
          <polygon class="cls-7" points="584.44 321.3 577.4 349.35 557.47 324.22 564.38 296.17 584.44 321.3"/>
          <polygon class="cls-19" points="556.66 432.37 576.45 457.78 569.53 485.06 549.82 459.65 556.66 432.37"/>
          <polygon class="cls-7" points="577.4 349.35 570.45 377.24 550.6 352.07 557.47 324.22 577.4 349.35"/>
          <polygon class="cls-5" points="582.47 236.42 551.33 242.98 531.5 218.27 562.56 211.79 582.47 236.42"/>
          <polygon class="cls-7" points="570.45 377.24 563.51 404.88 543.74 379.72 550.6 352.07 570.45 377.24"/>
          <polygon class="cls-1" points="571.35 267.91 564.38 296.17 544.44 271.2 551.33 242.98 571.35 267.91"/>
          <polygon class="cls-7" points="563.51 404.88 556.66 432.37 536.98 407.13 543.74 379.72 563.51 404.88"/>
          <polygon class="cls-4" points="553.99 156.86 573.64 181.03 542.83 187.36 523.23 163.11 523.23 163.07 553.99 156.86"/>
          <polygon class="cls-1" points="564.38 296.17 557.47 324.22 537.65 299.22 544.44 271.2 564.38 296.17"/>
          <polygon class="cls-19" points="556.66 432.37 549.82 459.65 530.22 434.38 530.26 434.38 536.98 407.13 556.66 432.37"/>
          <polygon class="cls-1" points="557.47 324.22 550.6 352.07 530.87 327.04 537.65 299.22 557.47 324.22"/>
          <polygon class="cls-5" points="562.56 211.79 531.5 218.27 511.83 193.72 542.83 187.36 562.56 211.79"/>
          <polygon class="cls-1" points="530.87 327.04 550.6 352.07 543.74 379.72 524.13 354.69 530.87 327.04"/>
          <polygon class="cls-1" points="531.5 218.27 551.33 242.98 544.44 271.2 524.74 246.45 531.5 218.27"/>
          <polygon class="cls-1" points="524.13 354.69 543.74 379.72 536.98 407.13 517.45 382.1 524.13 354.69"/>
          <polygon class="cls-1" points="524.74 246.45 544.44 271.2 537.65 299.22 517.99 274.43 524.74 246.45"/>
          <polygon class="cls-10" points="536.98 407.13 530.26 434.38 530.22 434.38 510.81 409.36 517.45 382.1 536.98 407.13"/>
          <polygon class="cls-1" points="537.65 299.22 530.87 327.04 511.29 302.25 517.99 274.43 537.65 299.22"/>
          <polygon class="cls-4" points="542.83 187.36 511.83 193.72 492.27 169.34 523.23 163.07 523.23 163.11 542.83 187.36"/>
          <polygon class="cls-1" points="530.87 327.04 524.13 354.69 504.68 329.83 511.29 302.25 530.87 327.04"/>
          <polygon class="cls-1" points="511.83 193.72 531.5 218.27 524.74 246.45 505.15 221.91 511.83 193.72"/>
          <polygon class="cls-1" points="504.68 329.83 524.13 354.69 517.45 382.1 498.07 357.25 504.68 329.83"/>
          <polygon class="cls-1" points="524.74 246.45 517.99 274.43 498.52 249.9 505.15 221.91 524.74 246.45"/>
          <polygon class="cls-10" points="498.07 357.25 517.45 382.1 510.81 409.36 491.52 384.46 498.07 357.25"/>
          <polygon class="cls-1" points="517.99 274.43 511.29 302.25 491.9 277.64 498.52 249.9 517.99 274.43"/>
          <polygon class="cls-1" points="491.9 277.64 511.29 302.25 504.68 329.83 485.37 305.26 491.9 277.64"/>
          <polygon class="cls-7" points="511.83 193.72 505.15 221.91 485.67 197.5 492.27 169.34 511.83 193.72"/>
          <polygon class="cls-1" points="504.68 329.83 498.07 357.25 478.89 332.6 485.37 305.26 504.68 329.83"/>
          <polygon class="cls-7" points="485.67 197.5 505.15 221.91 498.52 249.9 479.12 225.45 485.67 197.5"/>
          <polygon class="cls-10" points="478.89 332.6 498.07 357.25 491.52 384.46 472.38 359.86 472.42 359.82 478.89 332.6"/>
          <polygon class="cls-7" points="479.12 225.45 498.52 249.9 491.9 277.64 472.63 253.19 479.12 225.45"/>
          <polygon class="cls-7" points="491.9 277.64 485.37 305.26 466.18 280.78 472.63 253.19 491.9 277.64"/>
          <polygon class="cls-7" points="466.18 280.78 485.37 305.26 478.89 332.6 459.79 308.13 466.18 280.78"/>
          <polygon class="cls-19" points="478.89 332.6 472.42 359.82 472.38 359.86 453.4 335.35 459.79 308.13 478.89 332.6"/>
        </g>
        <g>
          <polygon class="cls-22" points="539.14 366.32 549.04 157.54 574.94 163.23 561.56 370.52 539.14 366.32"/>
          <polygon class="cls-18" points="549.04 157.54 757.11 140.78 777.77 147.38 574.94 163.23 549.04 157.54"/>
        </g>
      </g>
    </g>
  </g>
</svg>