<?xml version="1.0" encoding="UTF-8"?><svg xmlns="http://www.w3.org/2000/svg" viewBox="0 0 864.2131 278.1599"><defs><style>.c{fill:#3d3938;}.d{fill:none;isolation:isolate;}.e{fill:#000001;}.f{fill:#d0c5c0;}</style></defs><g id="a"><g class="d"><polygon class="e" points="33.9406 270.6599 7.7311 208.6941 37.985 7.4998 205.6154 7.4998 219.2433 76.4969 203.0319 270.6599 33.9406 270.6599"/><path class="e" d="m199.4518,15l12.23,61.9199-15.55,186.24H38.9117l-23.4499-55.44L44.4418,15h155.01m12.3271-15H31.5287l-1.9201,12.7694L.6287,205.4894l-.6287,4.1804,1.6469,3.8936,23.45,55.44,3.873,9.1566h180.9619l1.1482-13.752,15.55-186.24.1748-2.0936-.407-2.061-12.23-61.92-2.3886-12.0934h0Z"/><polygon class="e" points="391.2087 270.6599 388.9299 207.8074 391.5075 7.4998 561.0754 7.4998 566.7531 127.5388 558.9299 193.1004 475.0978 193.1004 475.2834 207.8074 473.0158 270.6599 391.2087 270.6599"/><path class="e" d="m553.9218,15l5.3101,112.27-6.96,58.33h-84.7701l.28,22.12-2,55.44h-67.34l-2.01-55.44,2.48-192.7199h155.01m14.3073-15h-184.1255l-.1906,14.807-2.4799,192.72-.0047.3683.0133.3682,2.01,55.44.5241,14.4565h96.2745l.5217-14.4592,2-55.44.0131-.3652-.0046-.3654-.0877-6.9302h82.8957l1.5776-13.2228,6.96-58.3299.1479-1.2393-.059-1.2466-5.3101-112.27-.676-14.2913h0Z"/><polygon class="e" points="212.6979 270.6599 198.3825 208.2654 214.7692 7.4998 383.8474 7.4998 387.1052 76.8181 383.2438 270.6599 212.6979 270.6599"/><path class="e" d="m376.6918,15l2.91,61.9199-3.71,186.24h-157.22l-12.72-55.44,15.73-192.7199h155.01m14.3116-15h-183.1473l-1.1247,13.7797-15.7299,192.7199-.1888,2.3129.5189,2.2618,12.7199,55.44,2.6719,11.6456h183.8725l.2928-14.7013,3.71-186.24.0099-.5017-.0235-.5012-2.9099-61.9199-.6719-14.2959h0Z"/><polygon class="e" points="751.2766 270.6599 748.5617 247.0906 740.8742 270.6599 571.091 270.6599 568.6428 223.4783 573.1633 193.1004 567.0793 193.1004 561.0588 76.6565 569.5129 7.4998 737.842 7.4998 740.7707 32.7356 747.6535 7.4998 826.2385 7.4998 844.3703 128.0955 840.0392 139.51 846.0891 139.51 856.4826 208.6941 830.2834 270.6599 751.2766 270.6599"/><path class="e" d="m819.7818,15l16.88,112.27-7.49,19.74h10.46l9.1201,60.71-23.4401,55.44h-67.35l-5.88-51.0499-16.65,51.0499h-157.22l-2.04-39.3199,5.6899-38.2401h-7.6599l-5.62-108.68,7.5699-61.92h155.01l4.22,36.37-9.9399,37.4099h12.4199l-1.3699-11.8599,16.8899-61.92h66.4m12.9133-15h-269.8212l-1.6113,13.1798-7.5699,61.92-.1581,1.2934.0673,1.3015,5.62,108.6799.7356,14.2254h4.5072l-3.1295,21.0324-.2209,1.4853.0778,1.4996,2.04,39.3199.7379,14.2228h271.2856l3.8722-9.1587,23.4399-55.44,1.6454-3.8915-.6277-4.1782-9.12-60.7099-1.9187-12.7717h-1.6399l1.1719-3.0886-.5836-3.8816-16.88-112.27-1.9199-12.7698h0Z"/></g></g><g id="b"><g class="d"><polygon class="e" points="128.8427 51.3698 144.9956 112.178 123.6546 112.178 106.3011 51.3698 128.8427 51.3698"/><polygon class="e" points="106.3011 51.3698 123.6546 112.178 110.7812 223.8388 91.9046 166.9032 106.3011 51.3698"/><polygon class="c" points="182.0609 207.7173 196.1309 263.1596 38.9103 263.1596 15.4663 207.7173 182.0609 207.7173"/><polygon class="e" points="199.4512 15.0013 211.68 76.9197 196.1309 263.1596 182.0609 207.7173 199.4512 15.0013"/><path class="f" d="m44.4427,15.0014h155.0085s-17.3903,192.7159-17.3903,192.7159H15.4663S44.4427,15.0014,44.4427,15.0014Zm70.9996,151.9018l13.4004-115.5334h-22.5416s-14.3965,115.5334-14.3965,115.5334h23.5376"/></g><g class="d"><polygon class="e" points="308.579 51.3698 315.1588 112.178 293.8178 112.178 286.0374 51.3698 308.579 51.3698"/><polygon class="e" points="286.0374 51.3698 293.8178 112.178 288.0461 223.8388 279.5829 166.9032 286.0374 51.3698"/><polygon class="c" points="372.5447 207.7173 375.8966 263.1596 218.6761 263.1596 205.9504 207.7173 372.5447 207.7173"/><polygon class="e" points="376.6875 15.0013 379.6008 76.9197 375.8966 263.1596 372.5447 207.7173 376.6875 15.0013"/><path class="f" d="m221.6792,15.0013h155.0083s-4.1428,192.716-4.1428,192.716h-166.5944s15.7289-192.716,15.7289-192.716Zm81.4412,151.9019l5.4585-115.5334h-22.5416s-6.4546,115.5334-6.4546,115.5334h23.5376"/></g><g class="d"><polygon class="e" points="767.3696 127.2742 749.0231 185.5973 736.4942 76.9198 753.3801 15.0014 767.3696 127.2742"/><polygon class="e" points="836.6599 127.2742 814.5215 185.5973 749.0231 185.5973 767.3696 127.2742 836.6599 127.2742"/><polygon class="f" points="753.3801 15.0014 819.779 15.0013 836.6599 127.2742 767.3696 127.2742 753.3801 15.0014"/></g><g class="d"><polygon class="e" points="777.3931 207.7174 757.9649 263.1597 751.2195 204.6495 769.8287 147.0097 777.3931 207.7174"/><polygon class="c" points="848.755 207.7174 825.3113 263.1597 757.9649 263.1597 777.3931 207.7174 848.755 207.7174"/><polygon class="f" points="777.3931 207.7174 769.8287 147.0097 839.6272 147.0097 848.755 207.7174 777.3931 207.7174"/></g><g class="d"><polygon class="e" points="735.379 51.3699 719.2263 112.1781 634.1446 112.1781 645.5107 51.3699 735.379 51.3699"/><polygon class="e" points="582.4244 127.2743 574.1988 185.5974 568.5815 76.9198 576.1523 15.0014 582.4244 127.2743"/><polygon class="e" points="674.8925 127.2743 661.6067 185.5974 574.1988 185.5974 582.4244 127.2743 674.8925 127.2743"/><polygon points="678.4684 166.9034 664.7993 223.839 661.6067 185.5974 674.8925 127.2743 678.4684 166.9034"/><polygon class="e" points="586.9184 207.7174 578.2078 263.1597 576.1754 223.839 584.6383 166.9034 586.9184 207.7174"/><polygon class="c" points="753.513 207.7174 735.4284 263.1597 578.2078 263.1597 586.9184 207.7174 753.513 207.7174"/><polygon class="f" points="731.1608 15.0014 735.379 51.3699 645.5107 51.3699 648.5638 88.7791 739.7179 88.7791 753.513 207.7174 586.9184 207.7174 584.6383 166.9034 678.4684 166.9034 674.8925 127.2743 582.4244 127.2743 576.1523 15.0014 731.1608 15.0014"/></g><g class="d"><polygon class="e" points="488.3157 51.3698 485.3222 112.178 463.9812 112.178 465.7741 51.3698 488.3157 51.3698"/><polygon class="e" points="489.1198 88.7791 486.0424 148.3908 485.3222 112.178 488.3157 51.3698 489.1198 88.7791"/><polygon class="e" points="559.2282 127.2742 552.272 185.5972 464.8557 185.5972 466.7512 127.2742 559.2282 127.2742"/><polygon class="c" points="467.7868 207.7173 465.7795 263.1596 398.4418 263.1596 396.4342 207.7173 467.7868 207.7173"/><path class="f" d="m398.9156,15.0013h155.0084s5.3042,112.2728,5.3042,112.2728h-92.477s1.0356,80.4432,1.0356,80.4432h-71.3526s2.4814-192.716,2.4814-192.716Zm90.2042,73.7777l-.8041-37.4093h-22.5416s.4816,37.4093.4816,37.4093h22.8641"/></g></g></svg>