<svg xmlns="http://www.w3.org/2000/svg" viewBox="0 0 2336.77197 252.06885">
  <defs>
    <style>
      .cls-1 {
        fill: #141414;
      }

      .cls-2 {
        fill: #3c3837;
      }

      .cls-3 {
        fill: #2b2928;
      }

      .cls-4 {
        fill: #d0c6c0;
      }
    </style>
  </defs>
  <g id="Top_Text" data-name="Top Text">
    <g>
      <polygon class="cls-1" points="624.258 28.898 616.745 13 497.076 13 490.287 35.321 477.069 13 417.299 13 410.496 32.99 397.292 13 257.745 13 250.922 29.538 237.738 13 98.199 13 16.048 182.432 81.447 239.069 223.17 239.069 228.927 224.248 243.49 239.069 304.196 239.069 309.962 222.834 324.516 239.069 385.222 239.069 390.998 221.123 405.541 239.069 466.247 239.069 472.036 219.008 486.567 239.069 608.11 239.069 612.126 221.628 632.17 221.628 661.33 90.252 632.793 28.898 624.258 28.898"/>
      <polygon class="cls-1" points="1002.163 13 862.616 13 855.979 60.908 842.609 13 703.062 13 667.342 182.432 695.778 239.069 837.509 239.069 842.233 204.332 822.905 146.493 772.155 146.493 779.036 105.841 849.754 105.841 839.143 182.432 857.829 239.069 918.535 239.069 925.568 170.58 926.258 170.58 925.044 182.432 938.855 239.069 999.561 239.069 1010.96 74.779 1002.163 13"/>
      <polygon class="cls-1" points="1083.927 146.493 1086.515 74.78 1081.94 13 1022.17 13 1010.945 182.432 1019.881 239.069 1141.415 239.069 1141.8 204.332 1140.225 146.493 1083.927 146.493"/>
      <polygon class="cls-1" points="2278.154 94.636 2257.542 94.636 2256.125 91.659 2269.985 77.787 2238.572 13 2099.025 13 2085.841 29.537 2079.018 13 1939.471 13 1926.266 32.99 1919.464 13 1779.917 13 1766.681 38.266 1759.91 13 1620.363 13 1596.443 74.779 1609.973 146.493 1563.097 146.493 1540.586 13 1480.825 13 1467.436 63.022 1460.809 13 1401.048 13 1388.735 74.78 1395.699 146.493 1393.902 146.493 1381.041 13 1321.271 13 1313.18 74.78 1323.664 239.069 1465.387 239.069 1479.77 193.482 1485.715 239.069 1607.25 239.069 1621.622 208.242 1627.438 239.069 1688.144 239.069 1702.638 212.82 1708.464 239.069 1769.17 239.069 1805.318 182.432 1784.792 105.841 1793.781 105.841 1830.007 239.069 1890.713 239.069 1933.567 183.224 1951.541 239.069 2093.272 239.069 2107.835 224.248 2113.592 239.069 2174.298 239.069 2188.868 225.435 2194.618 239.069 2255.324 239.069 2320.724 182.432 2278.154 94.636"/>
      <path d="M2054.72241,416.36652l.00025-.00031-39-80.43506H1380.46191l-28.47461,73.54444,11.31055,59.94873h-20.20312L1320.584,335.93164H917.76221l-.40345,133.49268H866.41113l2.127-58.96-5.519-74.53272H782.44928l-.00006-.00049-320.92578.00049-18.34778,87.02857-33.0863-71.13111H401.5l-7.5127-15.89795H256.44775l.00055.00049H173.29321l-.00171-.00049H18.05225l.04046.00049H-140.93848l-90.05517,185.73145L-154.39307,588H387.46338l4.01611-17.44043h20.12793l11.159-50.27441L456.76465,588H1545.30078l30.69727-48.09668L1589.07617,588h77.05274l31.665-41.2627L1711.07422,588h318.10254l76.60156-66.33691ZM246.09625,584.31348l.04877-.16895.1496.20648ZM601.6499,470.54834l-.376-1.124h-44.727l2.48046-14.65235H603.835Zm404.74561-1.124L1006.043,454.772h65.92816l.935,14.65235Zm692.241-130.97254,1.16944.01874-.76782,1.16229Zm173.04419,245.52783.32911-.33508.13964.35962Z" transform="translate(230.99365 -335.93115)"/>
      <polygon class="cls-1" points="1224.698 146.493 1223.72 105.841 1295.954 105.841 1303.186 44.929 1301.264 13 1161.717 13 1161.205 182.432 1161.612 239.069 1303.344 239.069 1311.464 182.432 1309.301 146.493 1224.698 146.493"/>
    </g>
    <g>
      <polygon points="237.738 13 286.99 74.78 274.924 105.841 224.275 44.929 237.738 13"/>
      <polygon points="224.275 44.929 274.924 105.841 198.334 105.841 143.344 44.929 224.275 44.929"/>
      <polygon points="143.344 44.929 198.334 105.841 156.795 204.332 96.849 146.493 143.344 44.929"/>
      <polygon points="210.421 77.788 262.525 137.758 223.17 239.069 166.298 182.432 210.421 77.788"/>
      <polygon points="325.503 44.929 370.72 105.841 351.513 105.841 305.206 44.929 325.503 44.929"/>
      <polygon points="305.206 44.929 351.513 105.841 340.177 137.758 292.539 77.787 305.206 44.929"/>
      <polygon points="397.292 13 438.1 74.779 417.83 137.758 374.658 77.787 397.292 13"/>
      <polygon points="374.658 77.787 417.83 137.758 398.482 137.758 354.197 77.787 374.658 77.787"/>
      <polygon points="354.197 77.787 398.482 137.758 393.085 154.104 348.159 94.636 354.197 77.787"/>
      <polygon points="300.393 111.632 348.268 170.58 328.52 170.58 279.492 111.632 300.393 111.632"/>
      <polygon points="279.492 111.632 328.52 170.58 304.196 239.069 252.199 182.432 279.492 111.632"/>
      <polygon points="368.772 94.636 412.568 154.104 385.222 239.069 338.1 182.432 368.772 94.636"/>
      <polygon points="477.069 13 513.655 74.78 466.247 239.069 424 182.432 477.069 13"/>
      <polygon points="616.745 13 645.939 74.779 642.377 90.252 612.772 28.898 616.745 13"/>
      <polygon points="568.296 44.929 600.488 105.841 581.281 105.841 547.999 44.929 568.296 44.929"/>
      <polygon points="547.999 44.929 581.281 105.841 556.14 204.332 519.859 146.493 547.999 44.929"/>
      <polygon points="632.793 28.898 661.33 90.252 632.17 221.628 600.152 164.38 632.793 28.898"/>
      <polygon points="578.911 164.38 612.126 221.628 608.11 239.069 574.399 182.432 578.911 164.38"/>
      <polygon points="842.609 13 859.85 74.78 855.626 105.841 837.896 44.929 842.609 13"/>
      <polygon points="837.896 44.929 855.626 105.841 779.037 105.841 756.965 44.929 837.896 44.929"/>
      <polygon points="756.965 44.929 779.037 105.841 762.364 204.332 738.304 146.493 756.965 44.929"/>
      <polygon points="822.905 146.493 842.233 204.332 837.509 239.069 817.601 182.432 822.905 146.493"/>
      <polygon points="939.123 44.929 951.422 105.841 932.215 105.841 918.827 44.929 939.123 44.929"/>
      <polygon points="918.827 44.929 932.215 105.841 928.938 137.758 915.165 77.787 918.827 44.929"/>
      <polygon points="932.294 111.632 945.316 170.58 925.567 170.58 911.393 111.632 932.294 111.632"/>
      <polygon points="911.393 111.632 925.567 170.58 918.535 239.069 903.502 182.432 911.393 111.632"/>
      <polygon points="1002.163 13 1010.96 74.779 999.561 239.069 989.403 182.432 1002.163 13"/>
      <polygon points="1081.94 13 1086.515 74.78 1081.84 204.332 1076.711 146.493 1081.94 13"/>
      <polygon points="1140.225 146.493 1141.8 204.332 1141.415 239.069 1139.792 182.432 1140.225 146.493"/>
      <polygon points="2193.418 44.929 2138.429 105.841 2119.221 105.841 2173.122 44.929 2193.418 44.929"/>
      <polygon points="2208.46 77.787 2151.89 137.758 2138.429 105.841 2193.418 44.929 2208.46 77.787"/>
      <polygon points="2269.985 77.787 2210.068 137.758 2190.72 137.758 2249.524 77.787 2269.985 77.787"/>
      <polygon points="2223.954 111.632 2165.733 170.58 2145.985 170.58 2203.053 111.632 2223.954 111.632"/>
      <polygon points="2170.464 182.432 2113.592 239.069 2049.773 74.779 2099.025 13 2170.464 182.432"/>
      <polygon points="2256.365 182.432 2194.618 239.069 2165.733 170.58 2223.954 111.632 2256.365 182.432"/>
      <polygon points="2031.556 44.929 1985.25 105.841 1966.043 105.841 2011.26 44.929 2031.556 44.929"/>
      <polygon points="2070.709 146.493 2020.23 204.332 1985.25 105.841 2031.556 44.929 2070.709 146.493"/>
      <polygon points="1998.662 182.432 1951.541 239.069 1898.663 74.779 1939.471 13 1998.662 182.432"/>
      <polygon points="1788.763 44.929 1755.482 105.841 1747.554 74.78 1779.917 13 1788.763 44.929"/>
      <polygon points="1829.233 44.929 1793.781 105.841 1755.482 105.841 1788.763 44.929 1829.233 44.929"/>
      <polygon points="1930.329 44.929 1889.453 105.841 1851.163 105.841 1889.868 44.929 1930.329 44.929"/>
      <polygon points="1869.816 182.432 1830.007 239.069 1793.781 105.841 1829.233 44.929 1869.816 182.432"/>
      <polygon points="1707.832 44.929 1678.893 105.841 1659.685 105.841 1687.536 44.929 1707.832 44.929"/>
      <polygon points="1715.748 77.787 1685.977 137.758 1678.893 105.841 1707.832 44.929 1715.748 77.787"/>
      <polygon points="1723.902 111.632 1693.262 170.58 1673.514 170.58 1703.002 111.632 1723.902 111.632"/>
      <polygon points="1655.059 182.432 1627.438 239.069 1596.443 74.779 1620.363 13 1655.059 182.432"/>
      <polygon points="1740.96 182.432 1708.464 239.069 1693.262 170.58 1723.902 111.632 1740.96 182.432"/>
      <polygon points="1504.809 182.432 1485.715 239.069 1464.29 74.78 1480.825 13 1504.809 182.432"/>
      <polygon points="1415.119 146.493 1401.316 204.332 1388.735 74.78 1401.048 13 1415.119 146.493"/>
      <polygon points="1333.007 182.432 1323.664 239.069 1313.18 74.78 1321.271 13 1333.007 182.432"/>
      <polygon points="1303.186 44.929 1295.954 105.841 1219.365 105.841 1222.255 44.929 1303.186 44.929"/>
      <polygon class="cls-2" points="166.298 182.432 223.17 239.069 81.447 239.069 16.048 182.432 166.298 182.432"/>
      <polygon class="cls-2" points="187.84 182.432 243.49 239.069 304.196 239.069 252.199 182.432 187.84 182.432"/>
      <polygon class="cls-2" points="273.741 182.432 324.516 239.069 385.222 239.069 338.1 182.432 273.741 182.432"/>
      <polygon class="cls-2" points="359.642 182.432 405.541 239.069 466.247 239.069 424 182.432 359.642 182.432"/>
      <polygon class="cls-3" points="578.911 164.38 612.126 221.628 632.17 221.628 600.152 164.38 578.911 164.38"/>
      <polygon class="cls-2" points="445.543 182.432 486.567 239.069 608.11 239.069 574.399 182.432 445.543 182.432"/>
      <polygon class="cls-2" points="667.342 182.432 695.778 239.069 837.509 239.069 817.601 182.432 667.342 182.432"/>
      <polygon class="cls-2" points="839.143 182.432 857.829 239.069 918.535 239.069 903.502 182.432 839.143 182.432"/>
      <polygon class="cls-2" points="925.044 182.432 938.855 239.069 999.561 239.069 989.403 182.432 925.044 182.432"/>
      <polygon class="cls-2" points="1010.945 182.432 1019.881 239.069 1141.415 239.069 1139.792 182.432 1010.945 182.432"/>
      <polygon class="cls-2" points="2170.464 182.432 2113.592 239.069 2174.298 239.069 2234.823 182.432 2170.464 182.432"/>
      <polygon class="cls-2" points="2256.365 182.432 2194.618 239.069 2255.324 239.069 2320.724 182.432 2256.365 182.432"/>
      <polygon class="cls-2" points="1998.662 182.432 1951.541 239.069 2093.273 239.069 2148.922 182.432 1998.662 182.432"/>
      <polygon class="cls-2" points="1869.816 182.432 1830.007 239.069 1890.713 239.069 1934.174 182.432 1869.816 182.432"/>
      <polygon class="cls-2" points="1655.059 182.432 1627.438 239.069 1688.144 239.069 1719.417 182.432 1655.059 182.432"/>
      <polygon class="cls-2" points="1740.96 182.432 1708.464 239.069 1769.17 239.069 1805.318 182.432 1740.96 182.432"/>
      <polygon class="cls-2" points="1504.809 182.432 1485.715 239.069 1607.25 239.069 1633.655 182.432 1504.809 182.432"/>
      <polygon class="cls-2" points="1333.007 182.432 1323.664 239.069 1465.387 239.069 1483.257 182.432 1333.007 182.432"/>
      <polygon class="cls-2" points="1161.205 182.432 1161.612 239.069 1303.344 239.069 1311.464 182.432 1161.205 182.432"/>
      <path class="cls-4" d="M6.74426,348.93145-6.71832,380.86006H-87.64927l-46.49524,101.56446h21.2168l30.83005-68.70573h61.52459l-44.123,104.64472h-150.25l82.15191-169.43206Zm159.5541-.00013H26.75127L-43.15331,518.36345H21.205l27.29347-70.79987H69.39919L42.74748,518.36345H107.106l30.67225-87.79619H117.16558l6.03793-16.84862h20.46092ZM82.13969,413.71864H61.54576L74.21284,380.86H94.50892L82.13969,413.71864M186.305,348.93145,128.64843,518.36351h64.35836l53.06834-169.43206Zm199.44684-.00013H266.082L214.54944,518.36345H343.40561l4.51174-18.052h21.24056l32.64095-135.48209H381.77841ZM310.08225,482.42439H288.86536L317.00569,380.86H337.302L310.08225,482.42439M472.06812,348.93145,436.34794,518.36351H586.60728l5.30455-35.939h-84.602l18.66177-101.56446h80.931l4.71263-31.92861Zm136.08161,169.432h64.35832l7.891-70.79987h20.9009l-7.24921,70.79987H758.409l12.76-169.43213H631.62192Zm96.61558-104.64481H684.17119L687.83344,380.86h20.29627l-3.3644,32.85868m86.41062-64.78719L779.95178,518.36351H908.79857l.43239-35.939H845.71772l5.22837-133.49307Zm1216.402-.00014h-139.5471l71.43973,169.43214h64.35852l-31.76947-70.79987h20.90071l32.41123,70.79987,64.35832,0-42.56942-87.7962H2026.548l-8.01759-16.84862h20.46073Zm-30.11136,64.78733h-20.59393L1942.12826,380.86h20.29609l15.04226,32.85868m-209.798,104.64481h150.25951L1848.0242,348.93131H1708.47693Zm72.04656-35.93906h-21.2167L1780.26624,380.86h20.29608l39.15286,101.56443M1548.9233,348.93145l8.84629,31.92861h40.46985l40.58262,137.50345h64.35843l-44.30621-137.50345h40.46106l-10.865-31.92861Zm-124.85843,169.432h64.35852L1472.008,447.56358h20.90071l17.05714,70.79987h64.35852l-45.40789-169.43214H1389.36922Zm60.68991-104.64481h-20.59393L1456.54237,380.86h20.29608l7.91633,32.85868m-234.92392-64.78719,23.9841,169.43206h128.84682l-7.03579-35.939H1332.1036l-22.51118-133.49307Zm-79.77692,0,14.07171,133.49307h-21.21686l-12.86167-133.49307H1090.277l11.73609,169.43206h150.25l-22.44763-169.43206Zm-239.33087,0-.51194,169.43206h150.25935l-2.16362-35.939h-84.602l-2.44348-101.56446h80.931l-1.9222-31.92861Z" transform="translate(230.99365 -335.93115)"/>
    </g>
  </g>
</svg>
